# xmcd CD database file
#
# Track frame offsets:
#	150
#	42418
#	76169
#	102291
#	158174
#	186496
#	221375
#	245653
#	269679
#	300701
#	322781
#	342022
#
# Disc length: 4765 seconds
#
# Revision: 0
# Processed by: cddbd v1.5.2PL0 Copyright (c) Steve Scherf et al.
# Submitted via: CDex 1.51
#
DISCID=a3129b0c
DTITLE=Dexter Gordon - Doin' Allright/Dexter Calling...
DYEAR=1961
DGENRE=jazz
TTITLE0=I Was Doing All Right
TTITLE1=You've Changed
TTITLE2=For Regulars Only
TTITLE3=Society Red
TTITLE4=It's You Or No One
TTITLE5=Soul Sister
TTITLE6=Modal Mood
TTITLE7=I Want More
TTITLE8=The End Of A Love Affair
TTITLE9=Clear The Dex
TTITLE10=Ernie's Tune
TTITLE11=Smile
EXTD=YEAR: 1961
EXTT0=
EXTT1=
EXTT2=
EXTT3=
EXTT4=
EXTT5=
EXTT6=
EXTT7=
EXTT8=
EXTT9=
EXTT10=
EXTT11=
PLAYORDER=
